<?xml version="1.0" standalone="no"?><!DOCTYPE svg PUBLIC "-//W3C//DTD SVG 1.1//EN" "http://www.w3.org/Graphics/SVG/1.1/DTD/svg11.dtd"><svg t="1717205477455" class="icon" viewBox="0 0 1024 1024" version="1.1" xmlns="http://www.w3.org/2000/svg" p-id="6093" xmlns:xlink="http://www.w3.org/1999/xlink" width="200" height="200"><path d="M832 128H192c-70.4 0-128 57.6-128 128v416c0 70.4 57.6 128 128 128h288v64H352c-17.6 0-32 14.4-32 32s14.4 32 32 32h320c17.6 0 32-14.4 32-32s-14.4-32-32-32H544v-64h288c70.4 0 128-57.6 128-128V256c0-70.4-57.6-128-128-128z m45.1 589.1C865 729.3 849 736 832 736H192c-17 0-33-6.7-45.1-18.9-11.9-11.9-18.6-27.6-18.8-44.1h768c-0.4 16.6-7 32.2-19 44.1zM896 609H128V256c0-17 6.7-33 18.9-45.1C159 198.7 175 192 192 192h640c17 0 33 6.7 45.1 18.9C889.3 223 896 239 896 256v353z" fill="#1296db" p-id="6094"></path></svg>