<?xml version="1.0" standalone="no"?><!DOCTYPE svg PUBLIC "-//W3C//DTD SVG 1.1//EN" "http://www.w3.org/Graphics/SVG/1.1/DTD/svg11.dtd"><svg t="1717205501172" class="icon" viewBox="0 0 1024 1024" version="1.1" xmlns="http://www.w3.org/2000/svg" p-id="7205" xmlns:xlink="http://www.w3.org/1999/xlink" width="200" height="200"><path d="M672 384H352c-17.6 0-32 14.4-32 32s14.4 32 32 32h320c17.6 0 32-14.4 32-32s-14.4-32-32-32zM672 544H352c-17.6 0-32 14.4-32 32s14.4 32 32 32h320c17.6 0 32-14.4 32-32s-14.4-32-32-32zM672 704H352c-17.6 0-32 14.4-32 32s14.4 32 32 32h320c17.6 0 32-14.4 32-32s-14.4-32-32-32z" fill="#1296db" p-id="7206"></path><path d="M768 96h-72.7c-11.1-19.1-31.8-32-55.3-32H384c-23.6 0-44.2 12.9-55.3 32H256c-70.4 0-128 57.6-128 128v608c0 70.4 57.6 128 128 128h512c70.4 0 128-57.6 128-128V224c0-70.4-57.6-128-128-128z m-384 32.1l0.1-0.1h255.8l0.1 0.1v63.8l-0.1 0.1H384.1l-0.1-0.1v-63.8zM832 832c0 17-6.7 33-18.9 45.1C801 889.3 785 896 768 896H256c-17 0-33-6.7-45.1-18.9C198.7 865 192 849 192 832V224c0-17 6.7-33 18.9-45.1C223 166.7 239 160 256 160h64v32c0 35.2 28.8 64 64 64h256c35.2 0 64-28.8 64-64v-32h64c17 0 33 6.7 45.1 18.9C825.3 191 832 207 832 224v608z" fill="#1296db" p-id="7207"></path></svg>