<?xml version="1.0" standalone="no"?><!DOCTYPE svg PUBLIC "-//W3C//DTD SVG 1.1//EN" "http://www.w3.org/Graphics/SVG/1.1/DTD/svg11.dtd"><svg t="1717205913027" class="icon" viewBox="0 0 1024 1024" version="1.1" xmlns="http://www.w3.org/2000/svg" p-id="2627" xmlns:xlink="http://www.w3.org/1999/xlink" width="200" height="200"><path d="M136 560c0 181.15 146.85 328 328 328 156.414 0 287.257-109.485 320.073-256H392V239.927C245.485 272.743 136 403.586 136 560z m328 400C243.086 960 64 780.914 64 560s179.086-400 400-400v400h400c0 220.914-179.086 400-400 400z m120-817.114V440h297.114C852.042 290.087 733.913 171.958 584 142.886zM960 512H512V64c247.424 0 448 200.576 448 448z" fill="#13227a" p-id="2628"></path></svg>