<?xml version="1.0" standalone="no"?><!DOCTYPE svg PUBLIC "-//W3C//DTD SVG 1.1//EN" "http://www.w3.org/Graphics/SVG/1.1/DTD/svg11.dtd"><svg t="1717205433297" class="icon" viewBox="0 0 1024 1024" version="1.1" xmlns="http://www.w3.org/2000/svg" p-id="3973" xmlns:xlink="http://www.w3.org/1999/xlink" width="200" height="200"><path d="M924.376537 452.433346 588.304362 97.607038c-20.88568-22.030759-48.796356-34.152844-78.719876-34.152844s-57.833173 12.123109-78.719876 34.152844L94.793458 452.433346c-34.675754 36.619012-30.211069 68.283176-24.475438 81.496106 4.087085 9.385764 17.876136 35.175127 57.621349 35.175127l49.251727 0 0 272.955672c0 61.980633 43.87937 120.329553 106.222253 120.329553l56.532551 0 86.546122 0 0-64.145949L426.492022 673.509441c0-30.968315-4.632507-48.221258 26.562982-48.221258l56.531528 0 56.530504 0c31.195489 0 26.562982 17.252943 26.562982 48.221258l0 224.734414 0 64.145949 86.532819 0 56.546877 0c62.34186 0 106.222253-58.348919 106.222253-120.329553L841.981968 569.104579l49.251727 0c39.744189 0 53.534264-25.789363 57.621349-35.175127C954.588629 520.716522 959.053314 489.052359 924.376537 452.433346zM891.231649 512.920976l-42.411949 0L820.562123 512.920976l-33.978882 0 0 329.139276c0 30.968315-19.677155 64.144926-50.825572 64.144926l-87.683015 0L648.074653 673.509441c0-61.96426-19.584034-104.404862-81.959663-104.404862l-56.530504 0-56.531528 0c-62.388932 0-81.95864 42.441625-81.95864 104.404862l0 232.695736-87.681992 0c-31.16479 0-50.825572-33.17661-50.825572-64.144926L232.586754 512.920976 198.606849 512.920976l-28.256554 0-42.411949 0c-0.983397 0-1.87572-3.866051-2.677992-3.921309 1.906419-3.403516 5.205559-12.016685 10.701736-17.806551l336.100828-354.573551c10.034541-10.619872 24.218588-17.118889 37.959543-16.983813 13.727653-0.135076 27.049053 6.363941 37.083593 16.983813l336.100828 354.573551c5.479805 5.79089 8.795317 14.403035 10.701736 17.806551C893.106346 509.054925 892.215046 512.920976 891.231649 512.920976z" fill="#13227a" p-id="3974"></path></svg>